<svg width="34" height="34" viewBox="0 0 34 34" fill="none" xmlns="http://www.w3.org/2000/svg">
<path d="M0.46872 8.17746C0.809576 4.17633 3.91235 0.997999 7.90698 0.587917C10.9512 0.275398 14.49 -0.00593769 17.3225 9.529e-05C19.9786 0.00575276 23.2793 0.273808 26.1573 0.574336C30.1429 0.990525 33.2213 4.16735 33.465 8.1672C33.6203 10.7158 33.7465 13.8081 33.7465 17.1271C33.7465 20.3618 33.6267 23.381 33.4768 25.8916C33.2327 29.9816 30.0306 33.1986 25.9477 33.5409C23.0333 33.7853 19.7056 34.0004 17.023 34.0004C14.3401 34.0004 11.0118 33.7852 8.09706 33.5408C4.01472 33.1985 0.798267 29.9864 0.454098 25.9042C0.211989 23.0326 4.62513e-09 19.765 0 17.1271C-4.71802e-09 14.4362 0.220589 11.0902 0.46872 8.17746Z" fill="#2F80ED"/>
<path d="M15.169 7.31641H12.1913V11.7941C12.1913 12.3112 11.7721 12.7304 11.255 12.7304H6.77734V15.7081H12.3601C13.9114 15.7081 15.169 14.4505 15.169 12.8992V7.31641Z" fill="white" stroke="white" stroke-width="0.3"/>
<path d="M15.1718 27.3101L12.2901 27.3101L12.2901 23.007C12.2901 22.4899 11.8709 22.0707 11.3538 22.0707L7.05078 22.0707L7.05078 19.1891L12.3628 19.1891C13.9142 19.1891 15.1718 20.4467 15.1718 21.998L15.1718 27.3101Z" fill="white" stroke="white" stroke-width="0.3"/>
<path d="M17.879 5.69336H20.7606V11.935C20.7606 12.4521 21.1799 12.8713 21.697 12.8713H26V15.7093H20.6879C19.1366 15.7093 17.879 14.4517 17.879 12.9003V5.69336Z" fill="white" stroke="white" stroke-width="0.3"/>
<path d="M17.3376 29.4758H20.4114V23.0402C20.4114 22.5231 20.8306 22.1039 21.3477 22.1039H26V19.1892H20.1465C18.5952 19.1892 17.3376 20.4468 17.3376 21.9982V29.4758Z" fill="white" stroke="white" stroke-width="0.3"/>
</svg>
